HIERARCHY
ROOT Hips
{
	OFFSET 4.076200 -17.275196 43.303001
	CHANNELS 6 Xposition Yposition Zposition Zrotation Xrotation Yrotation
	JOINT Chest
	{
		OFFSET -0.689800 0.941999 5.341000
		CHANNELS 6 Xposition Yposition Zposition Zrotation Xrotation Yrotation
		JOINT Chest2
		{
			OFFSET 0.000000 0.000000 4.278900
			CHANNELS 6 Xposition Yposition Zposition Zrotation Xrotation Yrotation
			JOINT Neck
			{
				OFFSET 0.000000 0.000000 9.970299
				CHANNELS 6 Xposition Yposition Zposition Zrotation Xrotation Yrotation
				JOINT Head
				{
					OFFSET 0.000000 0.000002 2.173901
					CHANNELS 6 Xposition Yposition Zposition Zrotation Xrotation Yrotation
					End Site
					{
						OFFSET 0.000000 0.000000 6.488197
					}
				}
			}
			JOINT LeftCollar
			{
				OFFSET 2.472300 -0.285801 5.433899
				CHANNELS 6 Xposition Yposition Zposition Zrotation Xrotation Yrotation
				JOINT LeftShoulder
				{
					OFFSET 5.327700 0.000000 0.000000
					CHANNELS 6 Xposition Yposition Zposition Zrotation Xrotation Yrotation
					JOINT LeftElbow
					{
						OFFSET 0.000000 0.000000 -10.713001
						CHANNELS 6 Xposition Yposition Zposition Zrotation Xrotation Yrotation
						JOINT LeftWrist
						{
							OFFSET 0.000000 -0.000002 -13.396900
							CHANNELS 6 Xposition Yposition Zposition Zrotation Xrotation Yrotation
							End Site
							{
								OFFSET 0.000000 0.000000 -2.173901
							}
						}
					}
				}
			}
			JOINT RightCollar
			{
				OFFSET -2.589400 -1.358400 6.105000
				CHANNELS 6 Xposition Yposition Zposition Zrotation Xrotation Yrotation
				JOINT RightShoulder
				{
					OFFSET -4.580200 0.000000 0.000000
					CHANNELS 6 Xposition Yposition Zposition Zrotation Xrotation Yrotation
					JOINT RightElbow
					{
						OFFSET 0.000000 0.000000 -10.761101
						CHANNELS 6 Xposition Yposition Zposition Zrotation Xrotation Yrotation
						JOINT RightWrist
						{
							OFFSET 0.000000 -0.000002 -13.028500
							CHANNELS 6 Xposition Yposition Zposition Zrotation Xrotation Yrotation
							End Site
							{
								OFFSET 0.000000 0.000000 -2.173901
							}
						}
					}
				}
			}
		}
	}
	JOINT LeftHip
	{
		OFFSET 2.532500 0.486900 -2.489700
		CHANNELS 6 Xposition Yposition Zposition Zrotation Xrotation Yrotation
		JOINT LeftKnee
		{
			OFFSET 0.000000 -0.000002 -18.199398
			CHANNELS 6 Xposition Yposition Zposition Zrotation Xrotation Yrotation
			JOINT LeftAnkle
			{
				OFFSET 0.000000 -0.000002 -16.083900
				CHANNELS 6 Xposition Yposition Zposition Zrotation Xrotation Yrotation
				End Site
				{
					OFFSET 0.000000 -8.641399 0.000000
				}
			}
		}
	}
	JOINT RightHip
	{
		OFFSET -2.112700 -0.049900 -2.711102
		CHANNELS 6 Xposition Yposition Zposition Zrotation Xrotation Yrotation
		JOINT RightKnee
		{
			OFFSET 0.000000 -0.000002 -19.127298
			CHANNELS 6 Xposition Yposition Zposition Zrotation Xrotation Yrotation
			JOINT RightAnkle
			{
				OFFSET 0.000000 -0.000002 -14.874901
				CHANNELS 6 Xposition Yposition Zposition Zrotation Xrotation Yrotation
				End Site
				{
					OFFSET 0.000000 -8.198299 0.000000
				}
			}
		}
	}
}
MOTION
Frames: 7
Frame Time: 0.041667
-2.340300 -29.991497 42.461403 -370.030361 11.749230 5.879082 -0.689799 0.942001 5.340992 9.430154 -14.131335 13.107481 -0.000001 -0.000002 4.278904 -11.339343 -0.124587 -1.548286 0.000003 0.000001 9.970289 -50.980259 18.793336 -6.046579 0.000003 0.000002 2.173896 -11.002410 -2.449571 -2.947824 2.472302 -0.285802 5.433898 -12.585862 4.725971 -20.031639 5.327700 0.000003 -0.000001 -314.872896 -12.667495 -389.289364 0.000001 0.000004 -10.712997 5.577331 -4.002464 -0.521631 -0.000001 -0.000002 -13.396901 -48.278034 1.222302 -9.366552 -2.589399 -1.358400 6.104991 -2.040891 -5.481258 -14.261173 -4.580202 -0.000003 -0.000002 -49.336546 -38.590733 28.834736 -0.000002 0.000008 -10.761103 -88.142717 -42.297555 -87.134670 -0.000004 0.000001 -13.028494 172.074759 179.254886 203.292630 2.532502 0.486901 -2.489705 66.906252 -46.897687 2.217072 0.000001 0.000002 -18.199398 -333.252497 16.244522 -13.489803 -0.000000 0.000000 -16.083897 251.955761 81.240852 35.352663 -2.112699 -0.049899 -2.711109 -8.602981 -13.107621 -10.121653 0.000000 0.000001 -19.127304 163.274224 155.271360 -188.430439 0.000001 0.000001 -14.874902 -1.153099 29.501223 21.162146
-2.323200 -29.983997 42.463802 -370.046890 11.604517 5.903061 -0.689802 0.942000 5.340995 9.426818 -13.912429 13.017104 -0.000002 -0.000002 4.278903 -11.341509 -0.130708 -1.549527 0.000003 0.000004 9.970298 -50.984063 18.770147 -6.051275 -0.000001 0.000002 2.173898 -10.982965 -2.480874 -2.985640 2.472301 -0.285802 5.433898 -12.570851 4.645013 -20.051000 5.327702 -0.000000 -0.000001 -315.092117 -12.461281 -389.291768 0.000000 0.000003 -10.712993 5.723106 -3.968599 -0.547307 0.000000 0.000010 -13.396898 -48.034070 1.189135 -9.348022 -2.589399 -1.358400 6.105001 -2.099863 -5.577405 -14.178352 -4.580203 0.000000 -0.000007 -49.315540 -38.515812 28.802238 0.000001 -0.000003 -10.761103 -88.345314 -42.540177 -87.469090 -0.000003 -0.000003 -13.028490 171.871861 179.194972 203.370576 2.532498 0.486898 -2.489700 66.420339 -46.816630 1.769620 -0.000001 -0.000004 -18.199402 -333.025025 16.149132 -13.452084 0.000001 -0.000001 -16.083899 251.647911 81.197098 35.715944 -2.112702 -0.049899 -2.711099 -8.551866 -12.956380 -10.102554 0.000002 -0.000003 -19.127300 163.401238 155.338036 -188.460260 -0.000001 -0.000001 -14.874901 -1.258423 29.529466 21.110680
-2.304101 -29.974794 42.466896 -370.087653 11.509432 5.914040 -0.689799 0.942000 5.340992 9.449144 -13.743013 12.959482 -0.000001 -0.000000 4.278900 -11.324289 -0.134784 -1.546743 0.000000 -0.000000 9.970286 -51.039118 18.769174 -6.029087 -0.000001 0.000002 2.173896 -10.934719 -2.509782 -3.039615 2.472300 -0.285803 5.433892 -12.546269 4.602599 -20.100231 5.327702 -0.000002 -0.000001 -315.319563 -12.286531 -389.227018 0.000003 0.000006 -10.712994 5.818342 -3.919459 -0.594698 0.000004 0.000002 -13.396899 -47.752468 1.117718 -9.340845 -2.589400 -1.358402 6.104993 -2.172876 -5.677557 -14.091437 -4.580198 0.000000 0.000006 -49.294203 -38.381241 28.707876 -0.000003 0.000003 -10.761098 -88.755590 -42.882598 -87.963288 -0.000008 -0.000005 -13.028497 171.587261 179.091289 203.491881 2.532501 0.486898 -2.489706 66.412381 -46.771469 1.687874 0.000002 -0.000006 -18.199402 -332.855636 16.067238 -13.449410 0.000000 -0.000005 -16.083900 251.032866 81.184660 36.196085 -2.112699 -0.049900 -2.711106 -8.527460 -12.865822 -10.073228 0.000000 -0.000003 -19.127296 166.946421 155.618962 -189.176364 -0.000001 -0.000005 -14.874900 -4.022286 29.355518 20.224993
-2.286501 -29.965996 42.469898 -370.107461 11.429996 5.914475 -0.689802 0.942000 5.340997 9.452570 -13.586886 12.930446 -0.000003 0.000000 4.278903 -11.289393 -0.133447 -1.540192 -0.000001 -0.000000 9.970298 -51.134583 18.800133 -6.002674 0.000002 0.000002 2.173895 -10.860773 -2.542208 -3.095123 2.472303 -0.285803 5.433901 -12.511518 4.582416 -20.203956 5.327700 -0.000001 -0.000003 -315.767159 -12.097173 -389.141067 0.000001 -0.000002 -10.712998 6.214246 -3.732363 -0.652357 -0.000001 0.000006 -13.396897 -47.366559 0.954090 -9.348833 -2.589399 -1.358398 6.104997 -2.263872 -5.794353 -14.005790 -4.580204 -0.000003 -0.000004 -49.293912 -38.244442 28.619392 -0.000001 0.000000 -10.761097 -89.134720 -43.098910 -88.422598 0.000005 -0.000004 -13.028495 171.357002 179.017742 203.520649 2.532502 0.486899 -2.489691 66.430010 -46.727336 1.647288 -0.000002 -0.000001 -18.199404 -332.735944 16.014968 -13.444776 -0.000001 0.000002 -16.083899 250.616443 81.191435 36.458368 -2.112700 -0.049902 -2.711099 -8.537301 -12.784704 -10.045781 0.000001 -0.000002 -19.127302 166.986008 155.714625 -189.200516 -0.000000 -0.000002 -14.874900 -4.034373 29.451011 20.224151
-2.270999 -29.957895 42.473400 -370.114045 11.562791 5.910219 -0.689801 0.941999 5.341000 9.447394 -13.698031 12.980985 -0.000002 -0.000000 4.278903 -11.230189 -0.105868 -1.528250 -0.000003 -0.000004 9.970307 -51.266604 18.881874 -5.957282 0.000000 -0.000000 2.173895 -10.772978 -2.567570 -3.156051 2.472297 -0.285806 5.433904 -12.513349 4.631911 -20.369000 5.327700 0.000000 -0.000001 -316.105062 -11.877935 -388.969328 -0.000002 -0.000003 -10.713001 6.290630 -3.626892 -0.704599 0.000005 0.000001 -13.396897 -46.658754 0.828017 -9.464596 -2.589402 -1.358405 6.105009 -2.353699 -5.886377 -13.915838 -4.580202 -0.000003 0.000004 -49.302665 -38.013793 28.530588 -0.000000 -0.000000 -10.761103 -89.629144 -43.365923 -88.945059 -0.000003 -0.000004 -13.028494 171.095761 179.043505 203.684465 2.532500 0.486900 -2.489696 66.720607 -46.767125 1.952987 -0.000000 -0.000007 -18.199400 -332.733922 16.002715 -13.435053 -0.000002 0.000000 -16.083899 250.481342 81.205389 36.434818 -2.112702 -0.049900 -2.711099 -8.550123 -12.902928 -10.044534 0.000001 -0.000000 -19.127300 166.992005 155.734392 -189.201253 -0.000000 -0.000002 -14.874899 -4.008569 29.451926 20.175547
-2.257501 -29.950195 42.476501 -370.115110 11.579910 5.934343 -0.689800 0.942000 5.340996 9.431525 -13.680481 12.967654 -0.000002 -0.000001 4.278902 -11.181920 -0.086882 -1.516717 0.000001 0.000002 9.970302 -51.350151 18.938142 -5.949452 -0.000000 0.000003 2.173896 -10.702788 -2.588646 -3.203135 2.472301 -0.285801 5.433899 -12.486578 4.659869 -20.541567 5.327700 0.000001 -0.000003 -316.502169 -11.648819 -388.789558 0.000002 0.000005 -10.712998 6.459175 -3.516078 -0.748318 0.000001 0.000003 -13.396903 -45.959834 0.701519 -9.438229 -2.589399 -1.358398 6.105000 -2.447316 -6.012846 -13.795853 -4.580200 0.000000 -0.000002 -49.172482 -37.609118 28.440570 -0.000001 0.000007 -10.761098 -90.462639 -43.851348 -89.605211 -0.000000 -0.000008 -13.028499 170.654968 179.036620 203.918112 2.532501 0.486898 -2.489695 67.088119 -46.807495 2.221845 0.000000 0.000004 -18.199402 -332.773264 16.002573 -13.444088 0.000001 -0.000002 -16.083900 250.194365 81.218435 36.500265 -2.112700 -0.049901 -2.711103 -8.530335 -12.893038 -10.052022 0.000001 -0.000003 -19.127300 166.973564 155.766822 -189.205939 -0.000001 -0.000002 -14.874902 -3.981615 29.441155 20.123674
-2.246001 -29.943798 42.479805 -370.094702 11.636637 5.966603 -0.689800 0.941999 5.340996 9.393293 -13.716665 12.957138 -0.000003 -0.000001 4.278899 -11.150598 -0.076407 -1.508839 0.000002 0.000001 9.970298 -51.377759 18.991332 -5.981966 0.000003 0.000000 2.173899 -10.662418 -2.612294 -3.227618 2.472300 -0.285802 5.433901 -12.473319 4.711529 -20.691032 5.327702 0.000003 0.000000 -316.943618 -11.409237 -388.647818 0.000001 0.000002 -10.712996 6.755202 -3.401863 -0.786777 0.000001 0.000006 -13.396894 -45.272946 0.570723 -9.037900 -2.589399 -1.358402 6.105001 -2.475632 -6.071937 -13.793348 -4.580199 0.000001 -0.000007 -49.143235 -37.454684 28.385503 -0.000003 0.000001 -10.761092 -91.155971 -44.251112 -90.233049 0.000005 -0.000008 -13.028500 170.317802 179.029599 204.061409 2.532500 0.486899 -2.489700 67.478560 -46.872569 2.541814 0.000002 0.000000 -18.199398 -332.843779 16.012523 -13.453103 -0.000002 0.000000 -16.083900 250.002354 81.229056 36.468006 -2.112701 -0.049900 -2.711102 -8.531019 -12.913507 -10.071611 0.000000 0.000001 -19.127304 166.949303 155.918370 -189.253245 -0.000002 -0.000002 -14.874901 -4.002786 29.544881 20.129908
